<?xml version="1.0" standalone="no"?>
<!DOCTYPE svg PUBLIC "-//W3C//DTD SVG 20010904//EN"
 "http://www.w3.org/TR/2001/REC-SVG-20010904/DTD/svg10.dtd">
<svg version="1.0" xmlns="http://www.w3.org/2000/svg"
 width="1440.000000pt" height="810.000000pt" viewBox="0 0 1440.000000 810.000000"
 preserveAspectRatio="xMidYMid meet">
<metadata>
Created by potrace 1.16, written by Peter Selinger 2001-2019
</metadata>
<g transform="translate(0.000000,810.000000) scale(0.100000,-0.100000)"
fill="#000000" stroke="none">
<path d="M0 7716 c1 -292 4 -386 13 -389 9 -4 9 -6 0 -6 -9 -1 -12 -65 -12
-261 0 -260 0 -261 22 -270 l22 -9 -22 0 -22 -1 -1 -3390 0 -3390 644 0 c506
0 645 3 649 13 4 9 6 9 6 0 1 -10 216 -13 1042 -13 l1042 0 21 23 c11 13 32
37 44 55 28 36 40 34 97 -15 21 -18 43 -33 48 -33 6 0 18 -7 27 -15 14 -13 42
-15 151 -13 127 3 132 4 104 18 -16 8 -48 27 -71 42 -23 14 -56 35 -75 45 -43
24 -150 94 -169 111 -8 7 -38 28 -66 45 -113 71 -154 99 -154 107 0 4 -13 13
-30 19 -16 5 -30 17 -30 25 0 9 -5 16 -12 16 -6 0 -8 3 -5 6 7 7 50 -18 82
-48 11 -11 45 -31 75 -45 30 -14 57 -28 60 -31 7 -9 37 -27 85 -51 22 -11 47
-25 55 -30 8 -5 35 -19 60 -31 25 -12 68 -34 95 -50 28 -15 56 -29 63 -29 8
-1 51 -18 95 -39 156 -73 178 -82 205 -82 l27 0 -30 14 c-16 8 -52 24 -80 36
-237 104 -461 221 -457 240 1 6 -2 9 -7 6 -8 -5 -84 31 -166 80 -22 13 -55 31
-72 41 -18 9 -33 20 -33 25 0 4 -6 8 -13 8 -8 0 -22 9 -32 20 -10 11 -24 20
-31 20 -7 0 -19 8 -26 19 -7 10 -27 25 -44 34 -29 15 -68 63 -103 126 -9 17
-41 75 -71 128 -30 54 -64 118 -77 143 -12 25 -27 52 -31 60 -5 8 -19 38 -32
65 -13 28 -29 61 -36 75 -8 14 -32 63 -55 110 -133 279 -128 258 -88 329 120
214 265 356 380 375 20 3 43 8 51 11 9 4 33 2 54 -4 22 -5 62 -13 89 -17 28
-3 55 -10 60 -14 6 -4 26 -11 45 -15 55 -11 234 -67 245 -76 5 -5 18 -9 30 -9
12 0 30 -7 41 -15 10 -8 25 -15 32 -15 7 0 31 -9 55 -19 153 -69 221 -102 245
-119 25 -18 145 -84 217 -121 17 -8 36 -20 43 -27 7 -7 28 -18 47 -25 19 -7
35 -17 35 -21 0 -4 6 -8 13 -8 6 0 30 -13 53 -28 22 -15 74 -49 115 -76 41
-27 76 -53 77 -57 2 -5 8 -9 14 -9 5 0 29 -13 53 -30 24 -16 46 -30 49 -30 2
0 20 -14 38 -31 18 -17 60 -49 93 -73 33 -23 69 -49 80 -58 11 -9 67 -52 125
-94 58 -43 123 -92 145 -111 22 -18 51 -42 65 -52 70 -55 170 -144 170 -151 0
-5 33 -35 73 -67 39 -32 110 -98 157 -146 220 -229 351 -366 387 -406 22 -24
45 -42 51 -40 7 2 -7 25 -33 53 -25 27 -45 52 -45 54 0 16 -553 566 -629 626
-41 33 -96 78 -122 100 -45 38 -127 103 -232 184 -60 46 -59 45 -89 65 -15 9
-63 46 -105 80 -68 55 -260 186 -378 258 -22 13 -47 29 -56 34 -9 6 -61 36
-115 69 -55 32 -119 71 -144 87 -25 15 -61 35 -80 44 -19 9 -48 24 -65 35 -35
22 -105 56 -155 75 -19 7 -59 25 -89 40 -40 19 -305 113 -371 130 -3 1 -12 5
-20 8 -36 15 -192 41 -265 44 -74 4 -84 2 -135 -26 -30 -17 -88 -64 -129 -106
-72 -74 -201 -254 -201 -282 0 -32 -29 -9 -41 32 -7 25 -17 45 -21 45 -4 0 -8
11 -8 25 0 14 -4 25 -10 25 -5 0 -10 10 -10 23 0 13 -4 27 -9 32 -9 11 -36 83
-36 100 0 6 -6 18 -14 27 -8 9 -16 25 -17 35 -2 9 -7 26 -13 38 -20 40 -48
111 -62 155 -7 25 -19 51 -26 58 -7 7 -13 24 -13 37 0 13 -4 27 -10 30 -5 3
-10 15 -10 25 0 11 -11 43 -24 72 -34 77 -48 126 -40 139 4 7 3 9 -3 6 -6 -4
-16 12 -23 36 -7 23 -18 60 -25 82 -25 78 -54 181 -65 230 -6 28 -16 58 -21
67 -5 10 -9 25 -9 35 0 19 -18 79 -31 105 -5 10 -9 29 -9 44 0 14 -7 33 -16
41 -9 9 -14 26 -11 39 2 13 0 21 -5 18 -5 -4 -9 2 -7 12 1 11 -1 26 -4 34 -4
8 -8 24 -10 35 -2 11 -9 38 -15 60 -24 86 -85 332 -92 370 -4 22 -17 72 -27
110 -49 175 -105 393 -109 425 -2 19 -11 55 -18 80 -8 25 -18 61 -22 80 -4 19
-8 37 -9 40 -1 3 -5 23 -9 45 -5 22 -23 99 -41 170 -18 72 -36 148 -41 170 -4
22 -8 42 -9 45 0 3 -5 36 -9 75 -4 38 -12 78 -16 90 -4 11 -11 63 -15 115 -7
104 -7 105 -29 235 -17 101 -41 295 -51 400 -3 39 -10 97 -15 130 -16 106 -26
285 -36 635 -6 246 -6 222 0 280 3 25 8 110 11 190 6 144 31 411 41 440 3 8 9
59 14 112 4 54 16 132 25 175 9 43 23 112 32 153 9 41 17 80 18 85 1 6 2 12 2
15 0 3 4 14 10 25 6 11 13 36 17 56 l6 37 -79 1 c-44 1 -83 -3 -86 -9 -3 -5
-11 -10 -16 -10 -6 0 -7 4 -4 10 4 6 -97 10 -279 10 -218 0 -286 -3 -289 -13
-4 -9 -6 -9 -6 1 -1 9 -98 12 -451 12 l-450 0 0 -384z"/>
<path d="M10687 8080 c3 -11 8 -20 12 -20 3 0 7 -24 9 -54 2 -30 5 -65 8 -78
6 -32 23 -196 29 -298 10 -143 14 -193 19 -252 4 -40 2 -58 -5 -58 -8 0 -8 -4
1 -15 6 -8 9 -23 5 -34 -6 -19 -3 -20 26 -14 30 6 31 5 19 -17 -10 -18 -9 -24
1 -32 11 -8 11 -9 -1 -5 -8 2 -14 12 -14 21 1 11 -4 16 -15 14 -13 -3 -16 -20
-17 -111 -1 -59 1 -107 4 -107 3 0 13 7 23 16 16 15 17 14 12 -5 -5 -19 -15
-25 -35 -22 -10 1 -10 9 -13 -179 -1 -91 -6 -173 -10 -182 -4 -11 -18 -18 -34
-18 -14 0 -48 -7 -75 -15 -27 -8 -64 -15 -82 -15 -18 0 -36 -4 -39 -10 -3 -5
-11 -10 -16 -10 -6 0 -7 5 -4 10 9 15 -6 12 -19 -3 -6 -8 -62 -22 -126 -31
-63 -10 -149 -24 -190 -31 -41 -8 -106 -16 -145 -20 -90 -7 -103 -10 -111 -18
-4 -4 -28 -7 -53 -7 -25 0 -73 -5 -106 -10 -33 -6 -85 -12 -115 -15 -132 -11
-197 -17 -225 -21 -16 -3 -66 -9 -110 -14 -44 -5 -179 -20 -300 -34 -209 -23
-256 -28 -420 -41 -38 -4 -104 -10 -145 -15 -41 -5 -156 -12 -255 -15 -99 -4
-192 -8 -207 -10 -17 -2 -28 2 -28 8 0 9 -2 9 -8 1 -5 -8 -54 -12 -147 -12
-77 0 -284 -4 -460 -8 -541 -13 -1373 -8 -1745 11 -36 2 -126 6 -200 10 -74 3
-166 10 -205 15 -38 5 -101 12 -140 15 -117 9 -289 26 -305 30 -8 2 -48 7 -89
10 -41 4 -110 13 -155 21 -45 8 -94 14 -111 14 -16 0 -50 7 -75 16 -24 8 -62
17 -85 18 -69 5 -135 18 -135 26 0 5 -9 6 -20 3 -11 -3 -34 0 -52 6 -18 6 -55
14 -83 17 -27 4 -61 11 -75 16 -14 6 -38 12 -55 15 -16 2 -58 11 -93 19 -35 8
-74 14 -88 14 -14 0 -35 6 -47 14 -12 7 -45 17 -74 20 -28 4 -68 13 -87 21
-20 9 -36 12 -36 9 0 -4 -6 -2 -13 4 -6 5 -28 13 -47 17 -19 4 -58 18 -87 31
-28 13 -56 24 -60 24 -18 0 -222 109 -269 144 -27 19 -62 43 -79 52 -16 9 -48
31 -70 49 -22 17 -71 54 -110 80 -38 27 -77 54 -85 62 -8 8 -49 38 -90 68
-123 89 -153 112 -195 150 -22 20 -52 43 -66 50 -15 8 -43 33 -62 55 -43 50
-91 62 -136 34 -31 -20 -101 -102 -101 -119 0 -6 -8 -26 -19 -46 -22 -41 -51
-123 -57 -159 -11 -79 -3 -251 16 -340 35 -158 66 -232 124 -296 55 -62 60
-73 81 -209 8 -49 18 -108 24 -130 16 -70 71 -279 82 -311 5 -17 11 -44 14
-60 6 -49 43 -181 94 -344 27 -85 52 -171 56 -190 8 -40 17 -69 80 -263 25
-76 61 -180 81 -230 19 -51 40 -105 46 -122 5 -16 14 -39 19 -50 20 -49 69
-181 69 -189 0 -5 9 -27 19 -50 11 -23 36 -81 56 -131 21 -49 48 -114 61 -143
13 -29 24 -54 24 -57 0 -2 18 -43 41 -92 22 -48 45 -97 49 -108 30 -72 167
-360 245 -518 l94 -187 -34 -33 c-36 -35 -64 -97 -70 -157 -10 -104 62 -399
104 -424 6 -4 11 -14 11 -23 0 -19 87 -143 101 -143 5 0 9 -6 9 -14 0 -8 16
-27 35 -42 19 -16 48 -40 65 -54 16 -14 56 -39 89 -55 33 -15 59 -31 56 -34
-2 -4 31 -3 73 0 79 7 136 28 146 54 3 8 13 15 21 15 9 0 14 3 12 8 -3 4 -2
15 2 24 5 15 11 14 51 -12 25 -16 50 -34 57 -40 20 -17 257 -140 281 -147 12
-3 25 -9 28 -14 3 -5 14 -9 25 -9 10 0 19 -4 19 -8 0 -4 20 -14 44 -21 25 -7
46 -16 48 -19 8 -18 119 -61 273 -106 50 -15 97 -30 105 -35 8 -4 45 -14 83
-21 44 -9 63 -17 55 -23 -8 -5 -5 -6 10 -2 12 4 38 1 56 -5 19 -6 56 -15 82
-19 27 -5 103 -20 169 -34 66 -14 149 -28 185 -31 114 -11 191 -24 205 -36 7
-6 15 -7 17 -3 1 5 47 4 101 -1 77 -8 97 -13 97 -25 0 -13 2 -14 9 -2 7 10 24
12 72 7 92 -9 293 -27 369 -32 78 -6 951 -7 1033 -1 31 2 57 0 57 -5 0 -5 4
-7 10 -3 17 11 140 13 140 3 0 -7 4 -7 13 0 6 5 66 13 132 16 66 4 134 9 150
12 17 2 75 9 130 15 254 26 302 32 400 49 28 5 57 8 65 8 8 0 87 12 175 27 88
14 171 28 185 30 83 14 151 27 275 54 306 64 345 72 354 67 5 -4 11 -2 13 3 1
5 35 17 73 26 39 9 84 21 100 27 26 8 117 31 165 42 8 2 23 6 32 10 9 4 22 5
28 1 5 -3 10 -1 10 4 0 6 4 11 9 11 6 0 9 -9 8 -20 -1 -11 -4 -20 -7 -20 -4 0
-12 -16 -20 -35 -8 -19 -17 -35 -21 -35 -4 0 -12 -12 -19 -27 -6 -16 -26 -53
-43 -84 -18 -31 -49 -87 -71 -125 -21 -38 -46 -80 -56 -94 -9 -14 -21 -36 -25
-50 -9 -28 -56 -103 -67 -108 -5 -2 -8 -8 -8 -13 0 -4 -20 -43 -45 -85 -25
-41 -45 -79 -45 -84 0 -10 -72 -82 -129 -129 -66 -53 -175 -170 -297 -315 -60
-71 -128 -152 -152 -180 -23 -28 -52 -66 -63 -83 -12 -18 -24 -33 -28 -33 -3
0 -15 -16 -25 -35 -11 -19 -23 -35 -28 -35 -4 0 -8 -6 -8 -14 0 -8 -3 -16 -7
-18 -7 -3 -61 -80 -73 -103 -3 -5 -35 -56 -72 -112 -38 -56 -68 -105 -68 -109
0 -4 -8 -16 -17 -27 -17 -18 -17 -19 7 -16 14 2 25 9 25 14 1 11 4 16 101 164
38 57 80 122 93 145 13 22 29 46 35 53 6 7 27 33 46 59 19 26 46 56 59 68 66
57 115 112 81 91 -6 -4 -7 1 -3 11 4 11 8 13 11 6 6 -18 20 -14 27 8 3 11 10
20 15 20 10 0 35 21 110 93 27 26 52 47 54 47 3 0 37 31 76 70 38 38 70 67 70
65 0 -5 33 20 62 48 10 10 16 23 12 29 -5 8 -1 9 10 5 13 -5 29 4 57 32 21 21
39 44 39 50 0 6 3 10 8 10 21 -4 34 3 29 15 -4 10 0 12 14 9 13 -4 19 0 19 11
0 9 5 16 12 16 6 0 26 11 44 25 18 14 37 25 43 25 10 0 15 14 12 33 0 4 6 7
15 7 8 0 32 13 52 30 79 63 172 130 181 130 6 0 15 8 20 18 5 10 21 24 36 32
25 13 25 15 9 27 -14 10 -15 13 -3 13 8 0 20 -5 26 -11 7 -7 21 -3 47 15 21
14 46 28 57 31 10 4 19 11 19 16 0 5 7 9 15 9 8 0 15 4 15 9 0 5 11 12 25 15
14 4 25 11 25 16 0 13 48 32 61 25 5 -4 0 -16 -11 -27 -11 -12 -20 -30 -20
-39 0 -10 -8 -26 -19 -36 -28 -27 -35 -70 -14 -82 10 -6 13 -11 6 -11 -6 0
-15 5 -18 10 -13 20 -37 -11 -30 -39 4 -17 3 -21 -3 -12 -7 10 -16 1 -33 -35
-13 -27 -29 -56 -36 -65 -8 -9 -15 -25 -18 -37 -2 -11 -16 -38 -30 -61 -16
-23 -25 -47 -21 -56 3 -9 2 -14 -3 -11 -5 3 -12 -1 -15 -10 -9 -23 -7 -36 3
-29 5 3 12 1 16 -4 3 -6 -5 -8 -20 -5 -14 2 -25 0 -25 -6 0 -5 -11 -33 -24
-60 -13 -28 -21 -48 -17 -45 4 2 8 -2 8 -9 0 -8 -5 -12 -12 -10 -15 6 -39 -41
-30 -57 5 -7 4 -10 -1 -6 -9 5 -62 -110 -57 -123 1 -3 -5 -12 -12 -20 -7 -8
-17 -27 -20 -42 -4 -16 -11 -28 -16 -28 -22 0 -6 -19 19 -23 l27 -4 -30 -2
c-26 -1 -33 -8 -55 -58 -13 -32 -25 -63 -26 -71 -1 -7 -11 -27 -22 -45 -10
-18 -22 -46 -26 -62 -4 -16 -16 -41 -27 -56 -10 -15 -19 -32 -19 -37 0 -5 -14
-40 -31 -77 -22 -47 -34 -63 -40 -53 -6 9 -9 9 -9 1 0 -6 4 -14 9 -17 5 -4 1
-24 -10 -46 -10 -21 -20 -47 -22 -57 -1 -10 -6 -23 -10 -30 -6 -9 155 -12 698
-12 616 -1 705 1 705 14 0 8 -4 15 -10 15 -43 0 47 72 222 180 15 9 22 2 47
-42 16 -29 49 -79 71 -110 l42 -58 1589 0 1589 0 0 2844 0 2845 -32 4 -33 4
33 1 32 2 0 1200 0 1200 -940 0 c-608 0 -940 -4 -940 -10 0 -6 -5 -10 -11 -10
-5 0 -8 4 -4 9 8 15 -1626 13 -1643 -1 -9 -8 -16 -9 -20 -1 -4 6 -41 11 -84
12 -72 1 -76 0 -71 -19z m1609 -585 c-47 -62 -84 -148 -117 -275 -30 -115 -32
-138 -33 -290 -1 -160 0 -167 28 -232 15 -37 42 -82 59 -99 30 -29 35 -30 87
-25 30 4 57 11 58 16 2 6 10 10 18 10 15 0 15 3 -6 -140 -17 -119 -20 -136
-45 -259 -44 -218 -104 -478 -125 -546 -5 -16 -18 -66 -29 -110 -28 -115 -57
-220 -81 -294 -11 -35 -20 -70 -20 -77 0 -15 -26 -98 -40 -129 -5 -11 -14 -38
-19 -60 -6 -22 -25 -85 -44 -140 -19 -55 -44 -136 -57 -180 -51 -183 -74 -250
-123 -365 -5 -14 -10 -28 -9 -32 1 -4 -10 -32 -23 -62 -14 -31 -25 -57 -24
-59 0 -1 -4 -15 -10 -30 -6 -16 -11 -31 -11 -33 0 -3 -11 -29 -24 -57 -13 -29
-41 -92 -61 -142 -40 -98 -211 -451 -230 -475 -7 -8 -27 -44 -46 -80 -19 -36
-36 -67 -39 -70 -8 -8 -28 -41 -46 -77 -9 -18 -20 -33 -25 -33 -5 0 -9 -7 -9
-15 0 -8 -7 -15 -15 -15 -8 0 -15 -6 -15 -12 0 -20 -96 -139 -105 -130 -5 4
-5 2 -2 -4 8 -14 -40 -64 -60 -64 -8 0 -11 -5 -7 -12 5 -10 4 -10 -5 -2 -9 8
-9 18 -1 40 6 16 14 31 18 34 7 5 19 25 78 135 65 119 83 165 94 242 6 43 17
101 25 128 13 45 44 198 80 390 20 109 135 676 145 715 5 19 11 58 15 85 3 28
10 64 15 80 5 17 16 75 26 130 9 55 21 116 26 135 5 19 17 85 28 145 11 61 24
128 29 150 5 22 12 51 15 65 3 14 15 77 27 140 11 63 23 118 25 121 2 4 8 36
14 71 10 62 13 81 23 124 3 12 8 39 11 59 4 21 14 70 22 109 9 39 22 103 29
141 17 98 53 278 71 355 8 36 21 105 29 154 8 49 19 103 25 120 5 17 21 92 36
166 14 74 32 161 39 195 13 55 13 61 -2 73 -10 7 -30 11 -45 8 -14 -2 -29 -1
-33 2 -6 6 153 162 166 162 4 0 23 14 41 31 34 31 126 88 142 88 5 -1 12 3 15
9 6 8 41 31 50 32 2 0 -9 -16 -23 -35z m-10063 -186 c32 -30 168 -134 195
-148 13 -7 32 -20 42 -29 10 -9 46 -37 81 -62 34 -25 99 -72 144 -105 45 -33
88 -64 97 -70 8 -5 26 -17 39 -26 72 -49 179 -115 228 -141 70 -37 70 -37 47
-53 -16 -12 -17 -24 -13 -92 3 -43 15 -132 27 -198 35 -194 94 -572 104 -665
3 -25 10 -72 16 -105 6 -33 13 -76 16 -95 10 -78 35 -248 45 -302 5 -32 19
-119 29 -195 11 -76 24 -163 30 -193 5 -30 12 -77 15 -105 3 -27 10 -77 16
-110 6 -33 14 -89 19 -125 5 -36 14 -94 19 -130 25 -164 42 -277 46 -300 3
-14 7 -52 11 -85 4 -33 9 -64 13 -70 3 -5 6 -19 7 -30 5 -54 16 -135 24 -175
5 -25 11 -70 15 -100 3 -30 10 -68 15 -85 5 -16 14 -68 19 -115 14 -112 28
-218 35 -255 12 -60 25 -169 20 -176 -2 -4 0 -10 5 -14 5 -3 10 -13 9 -23 0
-18 18 -124 32 -182 7 -29 48 -145 75 -212 5 -14 2 -18 -14 -18 -12 0 -21 4
-21 8 0 4 -13 15 -29 25 -54 32 -251 217 -251 236 0 6 -4 11 -10 11 -11 0 -87
109 -114 165 -11 22 -22 42 -25 45 -4 3 -13 19 -21 35 -8 17 -18 32 -21 35 -4
3 -17 25 -29 50 -33 65 -69 133 -80 150 -8 13 -126 258 -185 385 -29 61 -72
158 -92 205 -8 19 -35 76 -59 127 -24 50 -44 95 -44 99 0 8 -67 178 -80 202
-19 36 -49 109 -65 157 -9 28 -27 75 -40 105 -30 71 -139 369 -160 440 -9 30
-21 66 -26 79 -5 13 -21 67 -35 120 -14 53 -34 125 -43 161 -10 36 -23 74 -28
85 -15 29 -77 255 -133 485 -15 63 -37 151 -50 195 -12 44 -24 96 -26 115 -3
19 -9 59 -14 89 -16 86 -15 87 35 100 56 14 110 61 126 109 6 20 15 42 19 47
34 45 37 405 5 550 -9 39 -18 81 -21 95 -2 14 -11 42 -19 63 -17 42 -6 48 28
16z m7146 -1288 c8 -1 11 -4 8 -7 -5 -6 25 -58 43 -74 3 -3 14 -21 24 -40 11
-19 30 -48 43 -63 13 -16 23 -33 23 -38 0 -8 6 -17 53 -71 9 -12 17 -24 17
-28 0 -4 11 -20 25 -36 14 -16 25 -31 25 -34 0 -3 18 -26 40 -50 22 -24 40
-47 40 -50 0 -3 16 -24 36 -46 20 -21 45 -57 55 -79 10 -22 23 -47 28 -55 5
-8 28 -53 51 -98 23 -46 70 -127 106 -179 35 -53 64 -98 64 -100 0 -3 25 -38
56 -78 30 -41 56 -83 57 -94 0 -11 5 -17 9 -15 11 7 64 -57 60 -73 -2 -7 2
-13 8 -13 5 0 10 -4 10 -10 0 -5 -7 -10 -15 -10 -8 0 -15 4 -15 9 0 5 -14 14
-31 21 -18 8 -28 18 -25 26 3 8 0 11 -9 8 -18 -7 -87 45 -78 59 3 5 1 7 -5 3
-6 -3 -16 0 -24 7 -7 7 -24 20 -38 29 -89 61 -127 90 -182 138 -75 68 -263
259 -312 320 -20 25 -45 54 -54 65 -34 39 -82 103 -82 109 0 4 -5 12 -10 19
-15 17 -110 166 -110 172 0 2 -23 52 -51 111 -60 126 -85 202 -70 217 5 5 25
11 43 14 18 2 56 7 83 12 28 4 59 7 70 5 11 -1 26 -3 34 -3z m1346 -69 c12 -9
30 -38 48 -77 8 -16 35 -67 60 -112 25 -45 42 -84 39 -87 -3 -3 0 -6 6 -6 7 0
12 -6 12 -12 0 -7 20 -51 44 -98 24 -47 59 -132 79 -190 93 -278 104 -326 92
-418 -7 -51 -9 -54 -17 -31 -5 15 -17 29 -27 32 -17 4 -19 -5 -21 -122 -3
-159 -3 -161 -10 -161 -4 0 -6 -15 -6 -32 0 -18 -3 -49 -6 -70 -10 -57 -85
-329 -106 -378 -3 -8 -6 -19 -7 -25 -1 -13 -44 -144 -55 -170 -8 -18 -42 -115
-81 -228 -7 -21 -21 -46 -29 -55 -9 -10 -15 -23 -13 -29 7 -20 -85 -203 -102
-203 -8 0 -15 -4 -15 -9 0 -5 -8 -11 -17 -15 -10 -3 -54 -29 -98 -57 -75 -49
-304 -169 -320 -169 -4 0 9 16 29 35 21 19 40 35 44 35 9 0 190 188 226 236
17 23 56 72 87 111 48 59 103 136 144 202 6 9 12 18 15 21 10 10 68 125 75
149 11 37 -12 16 -36 -32 -30 -60 -170 -267 -180 -267 -5 0 -9 -5 -9 -11 0
-13 -97 -134 -160 -198 -25 -26 -66 -72 -92 -103 -42 -49 -105 -103 -242 -203
-90 -67 -345 -205 -377 -205 -10 0 -21 -4 -24 -10 -3 -5 -32 -17 -63 -25 -31
-9 -66 -20 -77 -25 -31 -14 -156 -32 -189 -29 -25 4 -15 11 80 58 60 30 141
75 179 101 62 42 89 59 146 95 112 70 290 247 440 435 45 56 129 179 129 188
0 4 18 36 40 72 40 65 77 137 142 280 49 106 110 267 128 340 7 25 16 54 21
65 5 11 18 65 29 120 11 55 26 125 33 155 l12 54 41 -37 c37 -33 64 -47 64
-31 0 8 -72 74 -81 74 -16 0 -31 43 -25 74 3 17 8 69 12 116 3 47 12 132 18
189 12 94 12 244 1 346 -2 22 -4 57 -4 78 -1 20 -5 37 -10 37 -5 0 -11 -127
-15 -282 -8 -344 -15 -457 -29 -483 -8 -15 -11 -17 -15 -6 -3 8 -21 31 -41 50
-20 20 -50 54 -66 75 -17 21 -35 44 -40 50 -30 31 -125 157 -150 196 -15 25
-31 47 -35 50 -4 3 -16 19 -26 37 -11 17 -35 57 -54 90 -54 91 -54 91 -124
223 -73 137 -93 186 -83 196 12 13 181 13 196 0 12 -8 13 -8 7 2 -5 9 6 12 46
13 171 2 367 15 376 24 8 7 25 6 37 -3z m-5944 -132 c12 -58 25 -125 30 -150
11 -66 39 -182 49 -205 5 -11 19 -62 31 -112 12 -51 24 -93 28 -93 4 0 8 -12
9 -26 1 -14 9 -35 17 -47 8 -12 15 -31 15 -44 0 -12 4 -24 9 -28 6 -3 13 -27
16 -53 4 -26 11 -62 15 -81 12 -46 -18 -119 -81 -195 -15 -17 -116 225 -133
316 -2 15 -7 32 -10 37 -4 5 -14 47 -23 93 -13 63 -17 139 -17 313 -1 201 9
393 19 383 2 -2 14 -51 26 -108z m4085 -110 c4 -110 2 -164 -11 -225 -9 -44
-18 -93 -20 -110 -36 -242 -38 -249 -96 -317 -30 -35 -65 -72 -78 -83 -13 -11
-35 -30 -48 -43 -13 -12 -28 -20 -34 -17 -5 3 -7 0 -4 -7 2 -7 -26 -36 -68
-68 -59 -44 -78 -47 -32 -5 19 18 165 216 165 224 0 5 21 39 46 77 26 38 53
87 61 109 7 21 18 42 23 45 9 6 33 79 45 140 3 14 8 30 10 37 2 7 0 15 -5 18
-5 3 -21 -34 -35 -82 -26 -84 -90 -216 -145 -298 -14 -22 -48 -71 -73 -110
-47 -70 -223 -262 -232 -253 -3 3 5 20 18 39 27 41 74 120 99 169 10 19 22 42
27 50 59 98 213 572 195 601 -2 4 3 12 10 19 8 6 40 62 71 123 31 62 62 115
68 119 6 4 8 10 4 14 -4 4 -1 14 5 22 20 23 29 -26 34 -188z m-4491 36 c-25
-58 -45 -112 -45 -119 0 -7 -7 -23 -16 -35 -8 -12 -22 -48 -30 -79 -8 -31 -18
-62 -23 -67 -5 -6 -14 -29 -21 -51 -14 -43 -43 -76 -274 -309 -82 -83 -183
-191 -223 -241 -41 -49 -84 -102 -96 -117 -12 -14 -33 -43 -47 -63 -14 -20
-35 -49 -47 -65 -13 -15 -23 -33 -23 -38 0 -6 -4 -13 -8 -16 -5 -3 -21 48 -37
112 -15 64 -32 126 -37 137 -4 11 -12 40 -16 65 -8 40 -5 50 22 90 17 25 53
68 81 97 27 28 78 80 112 115 144 148 250 247 258 241 4 -5 5 -3 2 3 -3 6 19
33 51 60 31 27 63 57 71 67 9 9 18 17 22 17 3 0 28 22 55 48 27 26 64 59 82
72 19 14 40 31 48 39 49 46 97 80 105 75 5 -3 9 0 9 6 0 10 62 71 68 65 1 -1
-18 -50 -43 -109z m1050 27 c-2 -7 0 -13 5 -13 10 0 26 -48 35 -107 4 -24 11
-43 16 -43 6 0 8 -4 5 -8 -2 -4 4 -27 15 -51 10 -24 19 -49 19 -57 0 -7 11
-53 24 -101 13 -48 36 -144 51 -213 34 -157 76 -301 121 -407 19 -45 34 -84
34 -87 0 -6 94 -210 109 -237 5 -8 22 -40 37 -70 16 -30 34 -60 41 -67 7 -7
13 -18 13 -23 0 -5 11 -27 25 -49 14 -22 21 -40 15 -40 -5 0 -10 4 -10 8 0 5
-11 22 -25 38 -14 16 -25 35 -25 42 0 7 -4 10 -10 7 -5 -3 -10 0 -10 7 0 7
-12 24 -25 37 -14 13 -28 34 -31 47 -3 13 -10 24 -15 24 -5 0 -18 19 -30 42
-12 23 -36 63 -53 88 -18 26 -47 77 -66 116 -18 38 -39 80 -46 94 -6 14 -33
77 -59 140 -26 63 -53 129 -59 145 -39 93 -101 331 -153 587 -7 38 4 78 22 78
8 0 15 5 15 11 0 5 -4 7 -10 4 -6 -4 -9 10 -8 34 1 23 5 41 10 41 4 0 8 12 9
28 l1 27 9 -30 c5 -16 7 -36 4 -42z m4646 -343 c5 0 9 -6 9 -13 0 -7 14 -21
30 -30 17 -10 30 -22 30 -27 0 -5 12 -16 28 -24 15 -8 44 -30 66 -50 21 -20
42 -36 47 -36 4 0 16 -10 26 -22 10 -13 25 -24 33 -26 8 -2 22 -9 30 -17 22
-19 97 -55 115 -55 8 0 15 -4 15 -9 0 -6 12 -23 26 -38 81 -87 125 -143 111
-143 -8 0 -26 9 -40 20 -14 11 -29 20 -33 20 -4 0 -22 11 -40 25 -18 14 -37
25 -41 25 -5 0 -27 16 -49 36 -21 21 -57 46 -78 58 -21 12 -38 25 -37 29 1 5
-11 16 -28 25 -37 21 -111 89 -111 102 0 5 -10 15 -22 21 -13 7 -32 24 -43 38
-11 14 -35 39 -52 56 -35 32 -43 51 -17 41 9 -3 20 -6 25 -6z m-6028 -327 c-7
-3 -13 -13 -13 -23 0 -10 -6 -25 -13 -32 -8 -7 -20 -31 -27 -53 -7 -22 -28
-71 -47 -110 -19 -38 -54 -124 -79 -190 -24 -66 -51 -131 -58 -145 -7 -14 -19
-42 -25 -62 -8 -23 -19 -38 -29 -39 -9 0 -12 -3 -6 -5 8 -4 3 -31 -18 -87 -16
-45 -40 -118 -53 -162 -12 -44 -27 -91 -32 -104 l-10 -25 -7 25 c-22 74 -35
132 -47 199 -7 41 -19 86 -26 100 -11 22 -10 27 10 50 41 45 108 151 128 203
6 15 14 27 18 27 4 0 16 16 27 35 10 19 21 35 25 35 4 0 12 14 19 31 11 25 63
100 108 154 4 6 20 28 35 50 37 55 120 146 126 138 4 -3 0 -8 -6 -10z m1041
-355 c26 -76 128 -296 158 -342 63 -97 120 -197 115 -202 -2 -2 -29 23 -60 56
-32 33 -62 60 -67 60 -6 0 -10 4 -10 8 0 8 -32 48 -90 112 -51 56 -86 105
-132 183 l-47 79 37 49 c20 27 40 49 44 49 4 0 8 7 8 15 0 36 17 9 44 -67z
m-112 -146 c-7 -2 -12 -11 -12 -20 0 -15 2 -15 10 -2 9 13 13 11 30 -10 11
-14 20 -30 20 -37 0 -6 3 -13 8 -15 4 -1 23 -23 42 -48 19 -24 41 -51 48 -60
42 -49 90 -101 135 -148 42 -42 49 -54 37 -62 -8 -5 -17 -7 -21 -4 -4 2 -10 0
-14 -6 -3 -5 -11 -10 -16 -10 -6 0 -8 4 -5 9 3 5 -1 11 -9 14 -9 4 -12 1 -8
-9 5 -14 -3 -15 -53 -11 -77 6 -130 21 -127 35 2 7 -4 9 -14 5 -12 -5 -14 -3
-8 7 5 9 4 11 -3 6 -15 -9 -72 42 -66 59 3 8 -2 12 -12 12 -26 -3 -64 69 -63
118 0 42 20 129 32 141 4 4 7 16 7 26 0 10 7 21 15 24 8 4 15 13 15 22 0 12 5
10 22 -8 15 -16 18 -25 10 -28z m225 37 c6 -6 9 -19 6 -28 -4 -14 -3 -14 6 -1
8 12 14 13 28 2 10 -6 28 -16 41 -22 12 -5 25 -16 28 -25 3 -8 10 -12 15 -9 6
3 15 1 22 -4 7 -5 24 -12 38 -15 14 -4 35 -15 48 -26 21 -18 21 -21 7 -56 -13
-29 -13 -35 -2 -26 14 11 14 -8 2 -72 -12 -61 -46 -102 -69 -84 -32 26 -157
233 -157 260 0 5 -9 21 -19 36 -27 38 -37 81 -19 81 8 0 19 -5 25 -11z m1637
-5 c9 -3 16 -14 16 -23 0 -14 2 -14 10 -1 8 13 10 12 10 -2 0 -22 -28 -24 -36
-3 -4 8 -10 15 -15 15 -6 0 -5 -9 1 -20 8 -16 7 -24 -4 -36 -8 -8 -13 -21 -9
-30 6 -16 18 -10 18 9 0 5 6 12 14 15 9 3 11 0 6 -7 -8 -14 22 -51 41 -51 22
0 25 -18 7 -36 -10 -10 -18 -21 -18 -25 0 -4 -3 -11 -7 -15 -16 -15 -8 -32 12
-27 23 6 26 -9 5 -27 -8 -6 -14 -15 -13 -18 3 -27 -5 -33 -41 -30 -22 1 -46
-4 -55 -11 -11 -9 -16 -10 -16 -2 0 6 -7 11 -16 11 -14 0 -14 -3 -4 -15 7 -8
9 -15 6 -15 -4 0 -2 -9 3 -19 9 -16 8 -18 -9 -14 -12 3 -20 0 -20 -7 0 -7 -6
-10 -14 -7 -8 3 -17 1 -20 -6 -2 -7 -5 -2 -5 10 -1 12 5 24 12 26 7 4 6 6 -4
6 -9 1 -23 -7 -30 -16 -10 -11 -10 -14 -1 -9 16 10 15 -2 -2 -20 -20 -20 -28
-17 -21 6 4 11 2 20 -4 20 -6 0 -11 6 -11 14 0 8 -5 18 -12 22 -8 5 -9 2 -5
-11 9 -22 -9 -45 -37 -46 -17 -1 -17 -2 -3 -6 25 -6 21 -20 -5 -19 -19 1 -22
-4 -20 -24 2 -14 0 -21 -5 -17 -4 5 -8 24 -8 42 0 18 2 32 4 30 2 -3 16 2 32
11 30 15 39 34 15 34 -9 0 -12 8 -8 28 4 19 7 22 10 10 5 -24 24 -23 40 2 12
20 32 19 32 -1 0 -6 -4 -7 -10 -4 -5 3 -10 -1 -10 -9 0 -8 5 -18 11 -22 8 -4
7 -9 -2 -15 -11 -7 -10 -9 3 -9 9 0 20 5 23 10 3 6 17 10 31 10 14 0 22 -4 19
-10 -3 -5 -1 -10 5 -10 6 0 10 8 8 18 -3 11 -12 16 -29 15 -19 -1 -25 4 -27
23 -1 18 3 24 18 24 25 0 26 -17 3 -23 -10 -2 6 -3 34 -3 29 1 53 5 53 9 0 5
5 5 10 2 9 -6 14 8 11 28 0 4 4 7 10 7 5 0 7 5 3 11 -4 7 -1 10 6 7 8 -2 16
-10 18 -18 3 -7 0 -10 -7 -6 -6 4 -11 2 -11 -3 0 -6 9 -11 20 -11 22 0 26 10
9 27 -9 9 -8 18 3 35 17 27 13 48 -9 48 -13 0 -13 -3 -3 -15 7 -9 8 -15 2 -15
-10 0 -22 23 -22 41 0 5 10 5 23 0 24 -9 47 -4 47 9 0 5 -13 6 -30 4 -18 -3
-30 -1 -30 6 0 6 4 8 10 5 6 -3 7 1 4 10 -6 14 -8 14 -24 0 -14 -13 -16 -23
-9 -47 7 -24 4 -36 -11 -56 -11 -13 -20 -31 -20 -38 0 -23 -14 -16 -32 15 -16
29 -15 31 6 55 12 14 26 26 32 26 7 0 9 11 6 25 -2 14 0 25 6 25 7 0 6 12 -3
35 -14 31 -13 35 3 45 16 11 16 11 0 6 -13 -4 -18 0 -18 14 0 10 8 21 18 23 9
3 18 5 19 6 1 0 8 -2 17 -5z m2961 -80 c11 -4 27 -8 35 -10 8 -1 33 -6 55 -10
22 -4 46 -11 53 -17 8 -6 12 -6 12 2 0 6 5 11 11 11 5 0 7 -4 4 -10 -3 -5 -3
-10 2 -11 44 -4 120 -36 126 -53 2 -6 3 -3 1 7 -2 14 2 16 19 10 12 -4 32 -7
45 -8 12 0 22 -5 22 -12 0 -6 8 -11 18 -11 41 3 92 -13 93 -30 0 -10 3 -12 6
-4 2 6 12 12 21 12 29 -1 51 -25 60 -66 l8 -39 7 34 c5 24 11 31 17 25 17 -17
-3 -55 -61 -114 -30 -30 -53 -58 -52 -61 1 -3 -13 -5 -32 -4 -31 1 -33 -1 -20
-15 20 -22 19 -30 -2 -30 -15 0 -16 2 -3 10 12 8 9 9 -11 8 -18 -2 -25 -7 -22
-16 4 -8 0 -13 -8 -11 -8 1 -29 -2 -47 -6 -28 -6 -31 -10 -20 -23 11 -13 11
-14 -2 -6 -22 14 -120 12 -120 -3 0 -6 -21 -15 -47 -18 -48 -7 -59 -10 -168
-42 -33 -9 -72 -18 -86 -19 -14 -1 -35 -7 -47 -13 -21 -11 -82 -15 -82 -5 0 7
27 34 34 34 2 0 6 -6 9 -12 2 -7 2 -3 1 9 -3 13 3 27 15 35 10 7 21 23 25 36
4 12 11 20 15 18 4 -3 6 8 3 23 -2 17 3 34 13 44 9 10 11 17 5 17 -6 0 -9 4
-5 9 14 24 21 193 9 234 -4 13 3 21 26 31 29 12 30 14 12 18 -12 3 -23 1 -25
-6 -3 -6 -8 -2 -12 9 -3 11 -11 28 -16 38 -12 22 -2 38 10 18 5 -7 14 -10 20
-7 6 4 11 3 11 -3 0 -5 -6 -11 -12 -13 -7 -3 -3 -7 8 -10 17 -4 20 -1 16 24
-4 27 -2 29 14 20 11 -6 28 -14 39 -18z m-4935 -6 c-1 -7 -7 -37 -13 -67 -11
-44 -10 -74 1 -163 13 -103 13 -110 -4 -123 -17 -12 -17 -13 6 -8 21 4 27 -1
36 -29 6 -18 15 -42 19 -52 6 -14 5 -17 -3 -12 -7 4 -12 3 -12 -2 0 -6 -9 -8
-20 -5 -16 4 -19 2 -13 -12 4 -13 3 -16 -5 -11 -7 4 -12 3 -12 -2 0 -19 14
-21 26 -4 13 16 13 16 14 -1 0 -10 5 -15 11 -12 6 4 8 13 5 21 -13 33 22 9 51
-37 23 -35 28 -49 17 -50 -8 -1 -19 -2 -26 -3 -7 -1 -15 10 -19 24 -4 14 -7
18 -8 9 -1 -9 -7 -19 -14 -22 -18 -7 -93 8 -161 32 -33 12 -65 21 -73 21 -7 0
-13 4 -13 8 0 4 -9 8 -21 9 -37 3 -124 36 -139 52 -8 10 -23 15 -32 13 -12 -2
-22 7 -33 30 -8 18 -12 23 -9 11 8 -32 -11 -28 -36 7 -13 19 -17 30 -9 30 7 0
10 3 6 6 -3 3 -11 3 -17 -1 -8 -5 -8 -10 0 -20 8 -10 7 -14 -2 -18 -10 -4 -10
-7 1 -15 7 -5 11 -16 8 -23 -3 -9 -10 -3 -18 17 -9 19 -20 29 -29 27 -13 -4
-13 -3 0 6 13 9 13 12 1 20 -7 5 -11 14 -7 20 5 7 1 9 -8 5 -9 -4 -16 -1 -16
6 0 7 -7 10 -16 6 -10 -4 -13 -2 -8 6 5 7 2 9 -9 5 -12 -4 -14 -2 -10 11 6 15
5 15 -10 3 -15 -12 -17 -12 -11 3 4 10 0 18 -10 22 -9 3 -16 15 -16 26 0 12 4
17 12 12 7 -4 8 -3 4 5 -4 6 -11 9 -16 6 -4 -3 -11 3 -14 12 -7 17 9 33 32 33
6 0 12 5 12 10 0 6 5 10 10 10 7 0 7 -8 -1 -22 -10 -19 -7 -18 15 5 15 16 33
26 41 24 7 -3 19 1 25 8 7 8 16 12 21 9 5 -3 9 1 9 10 0 8 -3 16 -7 19 -5 2
-3 2 4 1 6 -2 14 2 16 9 2 7 8 8 13 4 5 -4 2 -12 -5 -16 -9 -6 -10 -11 -3 -15
6 -4 17 0 24 7 7 8 21 12 31 9 13 -3 20 2 24 17 4 17 8 19 19 10 8 -6 21 -8
31 -4 10 5 27 10 38 12 11 2 27 11 35 20 8 9 9 13 3 9 -7 -4 -13 -2 -13 3 0
17 27 13 34 -6 5 -12 9 -14 18 -5 16 16 51 16 42 0 -4 -7 3 -3 15 10 24 24 41
29 41 10 0 -9 3 -9 9 1 5 8 20 16 33 18 21 2 22 2 6 -11 -10 -7 -18 -18 -18
-25 0 -6 -7 -11 -15 -11 -8 0 -15 -4 -15 -10 0 -18 28 -11 58 15 20 17 36 23
49 18 15 -6 16 -4 6 9 -7 8 -10 18 -6 21 11 12 43 8 43 -5z m4425 -32 c12 -12
12 -15 0 -20 -8 -3 -21 -4 -27 -2 -7 1 -10 1 -5 -1 15 -9 6 -21 -13 -16 -14 4
-20 0 -20 -11 0 -9 5 -16 11 -16 5 0 7 5 4 10 -8 13 5 13 25 0 13 -9 13 -10 0
-10 -12 -1 -11 -3 3 -11 9 -6 15 -14 12 -20 -4 -5 0 -9 9 -9 12 0 12 -7 -3
-51 -10 -27 -23 -55 -30 -62 -6 -6 -11 -16 -11 -22 0 -17 -51 -70 -85 -87 -57
-29 -80 -37 -110 -35 -16 2 -35 -1 -40 -5 -6 -4 -35 0 -65 9 -56 16 -112 63
-137 114 -23 48 -15 55 104 104 62 25 117 44 123 40 5 -3 10 -1 10 6 0 6 8 9
19 6 12 -3 18 0 15 7 -2 6 15 19 38 29 42 17 43 17 61 -5 10 -14 16 -17 15 -8
-2 8 -7 18 -13 23 -12 9 12 27 38 27 9 0 17 4 17 9 0 5 8 12 18 14 9 3 18 5
20 6 2 0 10 -5 17 -13z m-5500 -196 c4 -22 10 -42 15 -45 4 -3 11 -20 14 -39
4 -18 18 -55 31 -82 14 -27 25 -55 25 -62 0 -7 4 -20 9 -30 15 -28 61 -139 61
-146 0 -4 11 -31 24 -59 13 -29 38 -87 56 -130 18 -42 50 -111 71 -153 43 -83
46 -92 24 -74 -8 7 -15 16 -15 20 0 4 -24 43 -53 86 -29 44 -70 113 -91 154
-21 41 -42 80 -46 85 -4 6 -13 26 -20 45 -7 19 -21 53 -30 75 -42 97 -63 160
-81 251 -11 54 -22 101 -25 105 -6 10 6 39 16 39 5 0 11 -18 15 -40z m-9 -210
c35 -115 140 -352 178 -400 7 -8 18 -28 26 -45 27 -59 146 -231 223 -325 77
-93 334 -360 347 -360 3 0 15 -8 26 -18 10 -10 42 -33 69 -52 28 -19 52 -38
53 -42 2 -5 10 -8 17 -8 8 0 18 -6 22 -13 4 -7 22 -21 38 -32 17 -10 35 -23
41 -29 6 -6 57 -38 112 -71 56 -33 102 -63 102 -66 0 -10 -118 25 -132 39 -6
6 -19 12 -28 12 -9 0 -58 20 -108 45 -51 24 -92 42 -92 38 0 -3 -6 0 -14 6 -7
6 -33 22 -57 35 -121 64 -164 89 -169 95 -3 3 -16 12 -29 19 -13 8 -40 23 -60
34 -29 17 -122 89 -211 164 -67 56 -246 248 -263 281 -5 10 -15 23 -21 28 -36
30 -126 245 -126 301 0 13 -4 24 -9 24 -13 0 -23 63 -10 70 7 5 6 9 -4 13 -9
3 -22 35 -31 78 -15 65 -15 76 -1 119 8 26 18 58 20 71 12 62 17 79 25 79 4 0
11 19 15 43 l8 42 13 -60 c8 -33 21 -85 30 -115z m2122 97 c7 -5 10 -13 6 -18
-3 -6 3 -5 13 2 15 9 25 9 39 1 11 -7 13 -12 6 -12 -7 0 -10 -5 -6 -11 4 -8 0
-9 -15 -4 -21 6 -28 -4 -13 -19 4 -4 7 -21 7 -37 0 -31 -14 -41 -16 -11 0 10
-5 4 -11 -13 -6 -16 -23 -44 -38 -62 -15 -17 -29 -36 -31 -42 -4 -12 -109 -3
-109 9 0 4 14 22 30 40 17 18 30 36 30 41 0 5 5 9 10 9 6 0 10 7 10 15 0 23
32 85 42 79 4 -3 8 2 8 11 0 9 -4 13 -10 10 -6 -3 -7 1 -4 9 6 16 29 17 52 3z
m2862 -47 c0 -8 14 -39 30 -69 23 -42 27 -57 18 -64 -10 -7 -9 -8 2 -4 15 5
58 -19 49 -27 -2 -2 -37 -6 -77 -8 -69 -5 -74 -4 -89 18 -8 13 -19 21 -24 18
-5 -3 -9 -2 -8 3 3 19 -2 33 -12 33 -6 0 -9 -6 -6 -13 3 -8 -3 -13 -17 -14
-11 0 -15 1 -8 4 17 7 15 23 -4 23 -8 0 -12 5 -9 10 3 6 1 10 -4 10 -6 0 -11
-4 -11 -9 0 -5 -9 -11 -20 -14 -26 -7 -26 9 0 23 11 6 18 15 15 21 -13 20 8 8
27 -16 11 -14 24 -22 30 -19 6 4 6 10 -1 17 -6 6 -11 22 -11 37 0 20 -2 22
-10 10 -8 -13 -10 -13 -10 2 0 11 14 24 36 33 45 19 41 20 48 -10 4 -14 11
-23 16 -20 6 3 10 2 10 -3 0 -5 7 -9 15 -9 17 0 17 0 9 20 -3 9 -13 13 -25 10
-13 -4 -19 0 -19 11 0 9 5 16 11 16 5 0 8 4 5 9 -4 5 0 11 6 14 15 4 37 -21
38 -43z m-1603 -86 c13 -13 17 -13 24 -2 5 7 9 9 9 3 0 -21 -17 -35 -36 -29
-15 4 -13 1 6 -15 15 -13 21 -24 15 -28 -5 -5 -11 -15 -12 -23 -1 -8 -4 -28
-7 -45 -3 -16 -3 -24 0 -17 5 10 9 10 20 1 18 -15 18 -25 -4 -47 -17 -17 -16
-18 28 -15 25 1 59 3 75 3 28 1 28 2 8 10 -15 6 -21 15 -17 25 4 10 0 15 -14
15 -13 0 -22 9 -26 26 -4 15 -5 29 -1 32 3 3 5 -3 5 -12 0 -15 5 -17 27 -11
22 5 25 4 15 -8 -10 -12 -8 -13 13 -9 14 2 22 8 20 12 -3 5 0 12 6 16 7 4 9 3
5 -4 -3 -6 -2 -13 3 -16 5 -4 13 -2 16 4 5 8 11 7 21 -1 7 -6 11 -16 8 -21 -4
-6 -10 -5 -16 3 -7 11 -11 11 -15 2 -2 -7 -11 -13 -19 -13 -8 0 -14 -7 -14
-16 0 -8 5 -12 10 -9 6 3 10 -3 10 -14 0 -12 5 -21 11 -21 6 0 8 8 4 19 -7 23
32 41 45 21 10 -16 30 -4 31 18 0 11 2 13 6 4 4 -10 10 -9 26 5 18 15 20 15 8
1 -7 -9 -10 -22 -6 -28 9 -15 25 -2 25 21 0 28 15 23 16 -6 1 -15 -2 -22 -9
-18 -6 3 -7 1 -3 -5 4 -7 17 -12 29 -12 18 0 19 -2 7 -10 -8 -5 -10 -10 -5
-10 6 0 17 4 25 9 18 12 36 1 19 -11 -10 -7 -8 -8 8 -5 21 5 39 -16 28 -33 -6
-10 -45 -1 -45 10 0 5 -13 15 -30 24 -30 14 -37 11 -22 -10 6 -11 93 -54 107
-54 3 0 3 6 0 13 -4 6 0 4 8 -5 15 -19 32 -25 22 -8 -3 6 0 10 9 10 8 0 17 6
20 13 3 6 4 0 1 -15 -4 -20 0 -30 14 -38 27 -14 31 -13 31 10 0 24 15 26 24 3
4 -9 1 -20 -6 -25 -10 -6 -8 -8 5 -8 9 0 17 7 17 15 0 8 4 15 9 15 5 0 7 -9 4
-19 -4 -15 3 -22 31 -31 36 -11 61 -6 51 10 -3 5 4 7 15 5 11 -2 24 3 30 13 8
14 9 14 10 2 0 -9 9 -16 20 -16 13 0 19 5 16 13 -3 7 -1 13 3 13 11 0 22 -26
14 -34 -4 -3 -16 -6 -27 -6 -13 -1 -6 -6 19 -15 29 -11 41 -11 47 -3 3 7 4 16
1 20 -2 5 0 15 7 23 7 9 8 15 0 20 -13 8 -13 25 1 25 5 0 8 -4 5 -9 -4 -5 0
-11 6 -14 11 -3 11 -9 0 -26 -15 -25 -5 -28 14 -3 12 16 13 15 14 -5 0 -13 -4
-23 -10 -23 -15 0 -12 -15 9 -38 10 -12 29 -22 42 -22 13 0 34 0 47 0 40 1 53
-3 49 -14 -4 -12 -22 -12 -49 -1 -13 5 -15 2 -11 -16 l6 -23 -23 22 c-15 13
-31 20 -42 16 -13 -4 -18 0 -18 13 0 14 -2 15 -9 5 -6 -10 -11 -4 -16 20 -7
28 -9 30 -12 11 -5 -28 -5 -28 -45 -4 -17 11 -36 17 -41 14 -6 -3 -16 2 -23
12 -12 17 -44 15 -44 -2 0 -9 70 -33 95 -33 8 0 15 -4 15 -10 0 -5 5 -10 10
-10 6 0 29 -9 53 -19 79 -36 119 -51 127 -46 5 3 11 -1 13 -7 3 -7 6 -4 6 7 1
18 2 18 14 -4 7 -13 30 -29 52 -37 56 -19 63 -18 57 11 -3 18 0 25 12 25 9 0
16 -4 16 -10 0 -5 -6 -10 -12 -10 -9 0 -9 -3 -2 -8 6 -4 13 -15 17 -24 8 -24
19 -23 35 3 12 19 12 19 -10 8 -21 -11 -22 -11 -9 5 12 14 12 18 -5 31 -18 13
-18 14 4 12 12 -1 22 -7 22 -14 0 -7 5 -13 10 -13 14 0 12 -37 -2 -43 -18 -6
1 -23 35 -31 19 -4 26 -3 22 4 -3 5 -13 10 -21 10 -17 0 -19 16 -2 26 7 5 8 2
3 -7 -6 -11 -5 -11 4 -3 10 9 10 17 2 32 -20 37 -12 47 15 19 14 -15 30 -24
36 -21 7 5 5 12 -7 21 -11 7 -14 13 -9 13 6 0 16 -6 22 -12 10 -10 11 -4 8 26
-3 21 -3 36 1 33 25 -25 -2 -102 -32 -91 -7 3 -15 -2 -18 -10 -4 -9 -2 -16 3
-16 6 0 10 -6 10 -14 0 -19 13 -26 58 -37 44 -10 81 13 61 38 -7 7 -10 15 -8
17 2 2 14 -10 27 -25 l24 -29 -23 2 c-40 5 -30 -17 16 -34 45 -17 62 -11 51
17 -3 9 0 15 8 15 13 0 15 -27 4 -46 -8 -12 57 -38 71 -30 5 4 11 1 13 -6 3
-8 7 -6 11 5 4 12 1 17 -11 18 -9 1 -26 2 -37 3 -25 1 -32 38 -10 56 9 7 15 8
15 2 0 -6 -5 -12 -12 -14 -13 -5 -2 -28 13 -28 6 0 7 5 4 10 -3 6 -2 10 4 10
6 0 13 11 17 24 7 29 40 31 48 3 4 -15 2 -16 -10 -6 -12 9 -18 9 -27 0 -8 -8
-9 -14 -1 -19 20 -13 35 -50 22 -54 -6 -2 -8 -10 -4 -16 10 -17 39 -15 33 1
-3 8 1 14 9 14 7 0 11 -4 8 -9 -3 -4 0 -8 5 -8 6 0 11 7 11 15 0 8 -7 15 -15
15 -8 0 -15 5 -15 10 0 6 -5 9 -11 8 -6 -2 -14 4 -16 12 -4 13 -3 13 6 0 6 -8
11 -11 11 -6 0 5 6 3 13 -3 8 -6 16 -8 20 -5 9 9 -4 35 -14 28 -5 -3 -9 6 -9
20 0 14 5 28 10 31 6 4 10 3 9 -2 -3 -18 2 -33 11 -33 6 0 10 9 10 20 0 11 2
20 4 20 2 0 13 3 23 7 16 6 17 5 3 -12 -8 -10 -10 -16 -3 -12 6 4 14 3 18 -2
3 -6 13 -7 22 -4 11 5 14 3 9 -6 -5 -7 -16 -11 -26 -8 -13 3 -17 0 -13 -9 3
-8 -6 -18 -21 -25 -36 -17 -33 -28 8 -25 40 4 59 14 50 28 -4 7 -2 8 4 4 9 -5
9 -13 2 -26 -8 -15 -5 -23 12 -40 l22 -20 -26 2 c-15 1 -24 6 -22 10 3 4 0 8
-6 8 -6 0 -9 4 -5 9 8 13 -27 6 -62 -12 l-28 -15 35 -7 c19 -3 58 -5 85 -3 40
2 50 6 49 21 -2 19 31 24 42 5 5 -8 2 -9 -9 -5 -10 3 -17 2 -17 -3 0 -6 9 -10
20 -10 23 0 24 5 9 49 -8 22 -14 29 -19 21 -13 -21 -27 -2 -25 32 1 18 -3 39
-8 46 -7 9 -5 18 7 30 10 9 16 13 15 7 -3 -22 2 -29 11 -15 7 12 9 10 7 -7 0
-12 -4 -20 -8 -18 -3 3 -6 -9 -5 -25 1 -19 7 -32 19 -36 9 -3 17 -11 17 -17 0
-7 4 -6 11 3 8 12 9 10 4 -7 -7 -24 4 -30 21 -13 8 8 15 6 23 -4 9 -11 9 -14
-1 -13 -32 1 -49 -4 -43 -12 9 -16 137 1 163 21 8 7 12 7 12 -1 0 -7 5 -9 11
-5 7 4 21 8 33 9 36 4 37 5 30 16 -4 8 -9 7 -16 -2 -8 -11 -9 -10 -4 4 7 21
-10 23 -18 2 -3 -8 -10 -15 -16 -15 -6 0 -4 7 4 16 10 9 14 26 12 41 -4 20 -3
23 10 13 7 -7 14 -18 14 -25 0 -7 7 -15 15 -19 18 -6 20 5 3 22 -17 17 -4 24
25 13 18 -7 28 -6 36 3 6 7 8 15 5 18 -2 3 1 8 9 11 22 8 8 -41 -16 -58 -16
-12 -23 -12 -30 -2 -6 8 -7 7 -4 -5 3 -9 1 -19 -6 -22 -7 -2 -4 -5 5 -5 24 -1
68 42 68 68 0 12 4 19 10 16 6 -3 7 1 4 10 -8 20 16 81 26 65 6 -9 13 -9 30 0
18 9 21 9 15 0 -4 -7 -2 -16 5 -20 8 -5 7 -9 -4 -13 -10 -4 -16 -1 -16 8 0 26
-49 -3 -50 -29 0 -4 7 -6 15 -2 20 7 19 -3 -2 -27 -17 -19 -17 -20 3 -9 26 14
34 8 27 -19 -5 -16 -8 -18 -14 -7 -6 9 -11 10 -16 2 -5 -6 -15 -14 -23 -17 -8
-4 -1 -5 15 -3 46 4 70 17 53 27 -10 7 -9 9 5 9 10 0 15 5 12 10 -4 6 -10 8
-15 5 -15 -9 -23 16 -10 28 9 9 11 9 7 1 -4 -7 4 -14 19 -18 19 -5 24 -11 19
-26 -4 -12 -2 -20 4 -20 6 0 11 4 11 8 0 5 14 9 32 10 38 1 148 34 148 44 0 4
9 22 21 40 12 18 19 25 15 16 -3 -10 -1 -18 4 -18 6 0 10 -4 10 -10 0 -5 -6
-7 -14 -4 -7 3 -16 -2 -20 -12 -5 -12 -2 -15 11 -9 10 3 31 9 47 12 l29 6 -7
-58 c-6 -54 -5 -57 14 -52 11 3 20 0 21 -6 0 -8 2 -8 6 1 2 6 10 9 15 6 6 -4
8 -2 4 4 -3 6 -1 14 5 17 5 4 8 14 5 22 -4 9 -2 11 6 7 7 -4 8 -3 4 4 -10 17
-36 2 -36 -22 0 -17 -2 -18 -10 -6 -6 9 -6 18 0 24 6 6 10 17 10 26 0 12 -2
12 -9 2 -7 -11 -9 -11 -14 2 -4 9 -2 16 4 16 14 0 5 25 -9 26 -23 3 -24 4 -13
17 6 8 10 16 8 18 -1 2 6 -5 15 -16 10 -11 18 -24 18 -29 0 -5 8 -14 17 -21
14 -10 20 -10 31 2 8 8 17 11 20 8 3 -3 -3 -11 -12 -18 -15 -11 -17 -17 -7
-35 8 -14 8 -22 1 -22 -5 0 -10 -7 -10 -15 0 -9 -12 -20 -26 -25 -14 -6 -22
-14 -19 -20 3 -5 1 -10 -5 -10 -6 0 -8 -5 -5 -10 4 -6 11 -7 17 -4 6 4 17 -1
23 -10 12 -15 13 -14 11 7 -1 17 -6 23 -16 20 -13 -4 -13 -4 0 6 21 15 37 14
44 -5 3 -8 2 -12 -4 -9 -15 9 -12 -2 6 -19 8 -9 11 -16 6 -16 -6 0 -25 -15
-44 -32 -74 -72 -197 -168 -215 -168 -3 0 -17 -8 -31 -19 -15 -10 -67 -39
-117 -65 -49 -26 -97 -51 -105 -56 -64 -39 -284 -130 -315 -130 -20 0 -65 -22
-65 -32 0 -13 53 -9 84 7 15 8 36 15 45 15 10 0 21 3 25 7 18 18 89 35 166 39
77 5 254 35 294 50 30 11 16 -12 -29 -49 -25 -21 -45 -43 -45 -48 0 -6 4 -8 9
-4 6 3 13 -1 18 -9 4 -8 11 -15 16 -15 4 -1 7 -4 6 -8 0 -5 -8 -7 -17 -5 -15
2 -15 1 -2 -8 12 -8 9 -9 -12 -4 -29 6 -72 -12 -62 -27 3 -6 12 -3 21 8 8 10
12 12 8 6 -3 -7 -1 -13 4 -13 6 0 11 3 11 8 0 4 16 7 35 8 43 1 53 9 37 34 -7
11 -12 26 -12 35 0 9 -6 12 -15 9 -11 -5 -13 -2 -9 10 8 20 38 17 40 -4 1 -8
3 -19 4 -25 1 -5 2 -14 1 -18 -2 -14 27 -19 46 -8 16 9 16 10 -4 11 -13 0 -23
5 -23 11 0 6 7 8 17 5 9 -4 20 -1 25 6 6 10 8 10 8 1 0 -7 8 -13 18 -13 16 -1
16 -1 0 -11 -10 -5 -18 -17 -18 -25 0 -8 5 -12 10 -9 6 3 10 2 10 -4 0 -5 -6
-12 -12 -14 -8 -3 -6 -6 5 -6 9 -1 17 -8 17 -16 0 -12 -4 -13 -19 -6 -16 9
-21 5 -34 -32 -27 -75 -30 -90 -16 -85 7 2 19 14 27 26 14 21 13 22 -3 16 -12
-5 -16 -4 -11 4 3 6 19 9 34 7 15 -2 30 -4 35 -4 14 -2 7 -21 -9 -21 -9 0 -12
5 -8 12 4 7 3 8 -5 4 -6 -4 -9 -11 -6 -16 3 -4 1 -19 -4 -32 -6 -12 -10 -17
-10 -10 -1 19 -21 14 -21 -5 0 -10 -4 -14 -8 -8 -24 33 -64 -26 -59 -88 1 -17
-2 -32 -8 -32 -16 -1 -35 -15 -35 -26 0 -6 5 -7 10 -4 6 3 10 1 10 -6 0 -8 6
-6 18 4 20 18 32 13 32 -12 0 -14 -2 -14 -9 -2 -7 11 -13 7 -24 -20 -8 -20
-10 -36 -4 -40 5 -4 6 -9 0 -12 -5 -3 -17 3 -26 14 -13 15 -15 24 -7 39 6 11
8 20 5 20 -3 0 -13 -17 -21 -37 -9 -21 -23 -52 -31 -70 -8 -18 -12 -37 -8 -42
3 -7 0 -8 -10 -5 -11 5 -14 2 -9 -10 3 -9 2 -16 -3 -16 -6 0 -18 -18 -29 -40
-18 -38 -41 -54 -94 -65 -14 -2 -50 -11 -80 -19 -135 -34 -287 -67 -440 -95
-320 -58 -372 -66 -540 -81 -203 -18 -222 -20 -230 -25 -7 -4 -70 -8 -330 -21
-80 -3 -161 -8 -180 -11 -19 -2 -237 -7 -485 -9 -386 -5 -800 5 -960 21 -22 2
-96 7 -165 10 -69 4 -128 9 -132 11 -6 4 -47 8 -183 19 -103 8 -248 26 -265
33 -21 8 -19 7 -85 16 -54 7 -172 31 -350 71 -119 26 -172 51 -191 87 -8 15
-12 28 -8 28 4 0 -5 9 -20 21 -14 11 -26 25 -26 31 0 6 -16 45 -36 87 -19 42
-44 94 -54 116 -10 22 -35 75 -55 119 -60 129 -79 190 -50 166 8 -6 20 -8 26
-4 7 4 9 3 6 -3 -11 -18 39 -51 91 -60 21 -4 27 5 23 35 -3 21 16 13 22 -9 3
-12 10 -19 15 -16 12 8 36 -24 39 -51 2 -12 -3 -22 -10 -22 -8 0 -7 -4 3 -10
25 -16 30 -11 20 16 -6 14 -7 30 -4 35 3 6 -27 41 -67 79 -40 39 -68 70 -61
70 11 0 72 -26 168 -71 22 -10 48 -19 56 -19 9 0 18 -4 20 -8 4 -11 180 -59
243 -66 56 -7 52 -2 -29 40 -27 14 -54 30 -60 35 -38 31 -122 89 -129 89 -8 0
-59 35 -87 60 -10 8 -50 37 -89 63 -40 27 -70 51 -68 53 2 3 24 0 48 -6 24 -7
75 -18 112 -26 38 -8 73 -16 77 -19 5 -3 28 -8 52 -11 24 -3 77 -12 118 -20
70 -14 177 -17 262 -6 62 7 32 22 -46 22 -78 0 -204 24 -313 60 -85 29 -390
172 -403 189 -3 4 -34 25 -70 46 -70 42 -131 85 -170 122 -73 68 -100 96 -100
103 0 5 -29 68 -64 142 -35 73 -76 160 -91 193 -15 33 -35 78 -45 100 -30 64
-35 95 -16 95 9 0 16 -4 16 -10 0 -5 11 -12 25 -16 14 -3 25 -9 25 -13 0 -4
18 -17 40 -30 29 -16 38 -18 34 -8 -3 8 -1 18 5 22 7 4 11 -3 11 -18 0 -17 13
-32 49 -55 27 -18 55 -32 63 -32 8 0 29 -11 48 -25 35 -26 56 -33 45 -15 -3 6
-1 10 5 10 6 0 8 5 4 11 -5 8 -8 8 -13 0 -10 -15 -37 7 -46 36 -5 18 -3 22 10
17 8 -4 14 -14 13 -23 -2 -9 3 -16 10 -15 36 3 42 5 42 15 0 5 -4 8 -10 4 -5
-3 -8 9 -6 30 2 34 -18 69 -26 44 -2 -7 -8 -6 -16 4 -11 13 -9 15 14 12 29 -3
45 -21 37 -42 -6 -16 -2 -16 31 -3 21 7 26 6 26 -5 0 -8 -9 -15 -20 -15 -11 0
-20 -7 -20 -15 0 -8 7 -15 15 -15 8 0 15 6 15 13 0 8 3 7 9 -3 13 -19 3 -33
-19 -27 -20 5 -39 -25 -21 -31 6 -2 9 -8 5 -13 -3 -5 -1 -9 5 -9 6 0 8 -6 5
-13 -3 -9 10 -19 35 -29 28 -11 41 -13 44 -5 3 9 10 9 28 0 24 -12 24 -12 2
-12 -13 -1 -23 -4 -23 -9 0 -7 91 -52 106 -52 8 0 131 -52 178 -76 31 -16 53
-9 24 7 -10 5 -15 16 -12 24 4 9 0 15 -7 15 -11 0 -11 3 1 10 13 9 13 12 -2
24 -16 12 -16 14 8 25 14 6 30 9 35 6 17 -11 9 11 -11 28 -11 9 -20 22 -19 29
0 10 2 10 6 0 6 -16 61 -44 73 -37 5 3 14 -3 19 -14 6 -11 8 -21 3 -24 -4 -2
-1 -2 6 -1 6 2 12 2 12 0 0 -3 3 -13 6 -23 6 -15 4 -16 -7 -5 -7 6 -17 12 -22
12 -4 0 -5 -6 -1 -12 4 -7 4 -10 0 -6 -4 3 -8 10 -8 15 0 4 -5 14 -11 22 -9
12 -9 13 1 7 7 -4 12 -1 12 8 0 13 -4 14 -25 4 -13 -6 -21 -16 -18 -22 4 -6 0
-5 -9 2 -13 10 -17 10 -22 -4 -10 -27 -7 -44 10 -44 13 0 14 -3 5 -14 -9 -10
-8 -15 4 -20 8 -3 21 -3 29 0 8 3 19 -3 26 -16 9 -17 14 -19 26 -9 12 10 12
14 2 21 -9 6 -6 7 9 3 16 -4 23 -1 28 16 6 17 9 19 16 8 7 -11 9 -11 9 -1 0
17 38 7 60 -15 13 -14 13 -15 -2 -10 -10 3 -20 2 -23 -3 -4 -6 -14 -10 -23 -9
-11 0 -12 3 -4 6 19 7 14 22 -6 20 -13 -1 -18 -8 -16 -24 1 -12 -4 -27 -12
-34 -9 -7 -14 -8 -14 -1 0 6 6 13 13 15 8 4 7 6 -3 6 -8 0 -21 -3 -29 -8 -18
-12 -41 -3 -41 15 0 8 -4 14 -10 14 -5 0 -10 -9 -10 -20 0 -13 9 -21 28 -26
15 -3 49 -12 76 -20 27 -9 60 -13 73 -10 15 4 23 2 23 -7 0 -8 6 -14 13 -15 6
0 23 -4 37 -7 14 -4 20 -3 14 2 -7 4 -12 27 -12 50 -1 32 4 46 18 53 10 5 22
19 25 30 7 21 35 28 35 9 0 -5 -5 -7 -10 -4 -7 4 -9 -3 -5 -22 5 -21 4 -24 -4
-13 -12 17 -26 7 -15 -12 11 -18 12 -48 2 -54 -4 -3 -8 1 -8 8 0 8 -6 23 -14
34 -14 17 -15 16 -14 -25 0 -24 4 -38 8 -31 4 7 13 9 20 5 6 -4 17 1 25 11 13
17 14 17 15 2 0 -9 -8 -24 -17 -33 -16 -16 -15 -18 3 -28 26 -15 77 -20 69 -7
-7 11 34 30 51 23 6 -2 14 3 17 11 7 17 -16 18 -41 2 -7 -4 -16 -5 -19 -2 -4
3 -1 6 5 6 7 0 12 6 12 13 0 9 11 12 35 9 19 -2 35 -9 35 -14 0 -6 7 -8 15 -5
8 4 17 2 20 -4 4 -5 11 -6 17 -3 7 5 8 2 3 -6 -5 -8 -3 -11 5 -8 20 6 24 28 6
28 -8 0 -18 4 -21 10 -3 6 1 7 9 4 10 -4 16 -1 16 9 0 8 7 20 15 27 8 7 15 24
15 38 0 29 6 27 12 -3 1 -11 8 -23 13 -27 6 -5 4 -8 -5 -8 -24 0 -44 -38 -29
-56 8 -10 8 -14 1 -14 -6 0 -9 -6 -6 -14 6 -16 -24 -36 -44 -29 -19 7 -4 23
16 17 15 -5 15 -5 -1 6 -9 6 -22 8 -29 4 -7 -4 -8 -3 -4 4 4 7 3 12 -3 12 -15
0 -23 -18 -11 -25 5 -3 10 -11 10 -17 0 -7 -5 -6 -15 2 -8 6 -19 9 -25 5 -6
-4 -18 1 -25 11 -9 12 -14 14 -15 6 0 -7 -4 -10 -10 -7 -5 3 -10 -1 -10 -9 0
-8 8 -15 18 -15 34 -1 81 -9 91 -16 6 -3 11 -2 11 3 0 6 8 8 18 5 12 -3 23 4
32 21 7 14 19 26 25 26 6 0 16 12 22 28 l12 27 -6 -30 c-4 -16 -6 -35 -6 -42
0 -12 -11 -17 -32 -14 -5 1 -1 -6 9 -14 15 -11 22 -12 27 -3 6 9 11 9 23 -1
11 -9 16 -10 16 -2 0 6 -5 11 -11 11 -8 0 -8 4 0 14 9 11 9 16 0 22 -7 4 -9 3
-5 -4 3 -6 2 -13 -4 -17 -5 -3 -10 2 -10 12 0 21 20 56 20 35 0 -6 3 -11 8
-11 21 4 32 -3 32 -18 0 -15 2 -15 9 -4 7 10 3 24 -10 43 -11 15 -17 32 -14
38 3 5 1 10 -4 10 -6 0 -11 4 -11 10 0 5 7 7 16 3 8 -3 13 -12 10 -19 -3 -8 3
-18 13 -23 13 -8 18 -20 15 -46 -2 -29 0 -34 11 -25 7 6 11 20 8 31 -4 15 -2
18 11 13 9 -3 13 -10 10 -15 -3 -5 0 -9 5 -9 6 0 11 -4 11 -10 0 -5 -7 -10
-15 -10 -9 0 -12 -6 -9 -15 4 -8 4 -15 1 -15 -13 0 -62 25 -69 35 -11 14 -10
-17 1 -33 11 -17 234 -9 239 8 3 9 7 9 13 -1 8 -13 38 -14 187 0 6 0 12 9 13
19 0 14 2 14 9 -3 5 -11 9 -14 9 -8 1 9 8 10 24 4 24 -9 48 -4 59 13 5 8 8 7
8 -2 0 -9 5 -10 18 -4 9 5 23 8 30 6 7 -1 8 0 2 3 -5 2 -10 9 -10 14 0 6 7 6
19 0 23 -13 91 -11 91 1 0 5 -4 6 -10 3 -5 -3 -10 -1 -10 5 0 6 -4 8 -10 5 -5
-3 -10 -2 -10 3 0 5 14 9 30 9 23 0 29 -4 25 -15 -5 -13 -3 -13 11 -1 11 9 14
23 11 43 -3 17 -3 25 0 17 5 -11 7 -11 15 0 6 10 8 7 6 -11 -1 -14 2 -25 7
-25 6 0 8 6 7 14 -3 11 0 10 12 -2 15 -14 20 -14 63 0 80 27 91 36 82 61 -5
12 -11 22 -15 22 -3 0 -4 -6 -1 -14 3 -8 -1 -20 -8 -26 -11 -9 -18 -9 -30 3
-20 20 -21 44 -1 28 10 -9 16 -8 26 4 15 18 50 3 50 -21 0 -9 3 -14 8 -12 4 2
35 17 69 33 34 17 62 33 63 36 0 4 -10 9 -22 12 -12 4 -20 9 -16 12 3 3 16 1
30 -4 23 -9 25 -7 21 17 -3 23 -2 24 6 7 l9 -20 4 20 c3 11 4 7 2 -8 -3 -20 0
-27 9 -24 6 2 12 14 11 26 0 12 6 21 13 21 8 0 11 -4 8 -10 -8 -14 8 -13 37 3
14 7 22 19 20 26 -3 9 0 11 7 6 14 -8 81 21 81 35 0 6 5 10 11 10 17 0 36 24
33 43 -4 29 11 19 21 -15 7 -22 16 -32 32 -33 35 -2 40 -15 7 -16 -18 -1 -22
-3 -11 -6 14 -4 16 -8 6 -19 -12 -14 -2 -48 35 -124 10 -20 9 -37 -3 -85 -8
-33 -18 -62 -22 -65 -7 -5 -16 -33 -24 -76 -2 -10 -4 -19 -5 -19 -1 0 -3 -8
-5 -17 -2 -10 1 -18 6 -18 5 0 9 -8 9 -17 0 -15 -2 -16 -10 -3 -12 19 -20 10
-30 -34 -6 -26 -4 -36 6 -40 15 -6 14 -40 -1 -53 -4 -5 -5 2 -2 15 3 15 1 22
-6 19 -13 -4 -59 -147 -52 -165 5 -14 25 -7 25 9 0 6 -4 8 -9 5 -5 -4 -7 3 -4
14 6 21 10 23 13 5 1 -5 6 -15 10 -21 6 -6 2 -17 -10 -27 -11 -9 -20 -12 -20
-7 0 6 -5 10 -11 10 -6 0 -8 -9 -4 -20 3 -11 2 -20 -3 -20 -5 0 -9 -6 -9 -12
0 -7 -4 -25 -8 -40 -5 -19 -3 -28 5 -28 6 0 8 5 5 10 -3 6 -1 10 4 10 15 0 14
-13 -5 -36 -8 -10 -13 -13 -9 -6 3 6 2 12 -4 12 -6 0 -13 -17 -16 -37 -11 -76
-26 -125 -46 -152 -19 -26 -20 -32 -8 -54 8 -14 32 -61 54 -104 48 -95 96
-158 138 -180 18 -9 59 -38 92 -64 84 -68 165 -132 181 -144 24 -18 28 5 4 30
-27 28 -43 70 -65 165 -9 36 -23 81 -32 100 -15 32 -15 42 0 135 21 126 36
250 41 340 2 39 9 108 15 155 14 110 14 563 1 615 -6 22 -13 51 -16 65 -7 33
-21 90 -29 115 -4 15 2 25 25 40 16 11 30 24 30 28 0 5 -4 5 -10 2 -5 -3 -12
7 -16 22 -3 15 -7 34 -10 41 -4 15 -34 16 -34 1 0 -5 -4 -8 -10 -4 -5 3 -7 11
-4 19 3 7 -5 18 -18 24 -13 6 -17 11 -10 11 7 1 24 -6 37 -15 15 -10 25 -12
25 -5 0 6 5 11 11 11 6 0 9 -7 5 -15 -3 -8 0 -15 7 -15 7 0 13 11 13 25 1 14
-2 25 -7 25 -17 0 -24 2 -42 12 -10 5 -16 12 -13 15 3 3 12 0 21 -7 9 -7 15
-8 15 -2 0 6 3 18 7 28 5 13 3 15 -7 9 -9 -5 -11 -4 -6 3 9 16 14 15 33 -4z
m-2736 -895 c20 -16 40 -29 45 -29 4 0 17 -9 28 -19 28 -26 256 -139 334 -167
106 -37 90 -40 -38 -8 -36 8 -78 18 -95 21 -16 3 -34 9 -40 13 -5 4 -33 15
-61 24 -46 15 -162 99 -163 118 -1 4 -22 28 -48 53 -52 50 -29 46 38 -6z"/>
<path d="M8990 1641 c-47 -9 -92 -20 -100 -23 -8 -3 -87 -18 -175 -32 -88 -15
-180 -31 -205 -36 -25 -5 -77 -11 -116 -14 -39 -3 -82 -10 -95 -15 -14 -5 -69
-12 -124 -16 -55 -4 -108 -9 -118 -11 -10 -2 -69 -6 -130 -9 -62 -3 -132 -8
-157 -10 -25 -3 -97 -7 -160 -10 -63 -3 -119 -10 -123 -14 -5 -5 -7 -77 -5
-160 4 -171 9 -183 74 -183 41 0 158 9 209 16 17 3 53 7 80 11 54 7 183 29
255 44 110 23 289 64 333 77 26 7 55 10 64 7 10 -4 14 -2 10 4 -4 6 6 13 23
17 17 3 33 6 38 7 4 1 43 15 87 31 44 16 94 34 110 39 17 6 41 15 55 21 14 6
39 17 55 23 81 35 225 112 270 145 71 53 91 78 77 92 -19 19 -139 19 -232 -1z
m-234 -88 c-16 -8 -35 -16 -41 -17 -7 -1 -19 -7 -26 -13 -17 -13 -236 -83
-262 -83 -10 0 -26 -4 -35 -9 -9 -5 -33 -11 -52 -14 -19 -3 -55 -10 -80 -15
-148 -35 -243 -50 -303 -49 -37 1 -67 -1 -67 -4 0 -14 -275 -28 -288 -14 -2 1
-4 26 -5 55 l-2 52 105 4 c173 6 338 19 450 34 167 23 260 32 274 27 9 -4 18
-2 20 2 5 8 61 21 116 26 112 12 142 16 162 24 13 6 32 10 43 10 16 0 14 -3
-9 -16z"/>
<path d="M5246 1567 c-16 -12 -16 -15 9 -40 15 -14 66 -45 113 -68 48 -23 94
-46 102 -51 8 -4 22 -11 30 -14 8 -3 35 -14 60 -24 25 -9 106 -36 180 -60 74
-23 148 -48 163 -56 16 -8 36 -14 45 -14 9 0 46 -9 82 -20 91 -27 314 -78 380
-85 30 -4 87 -11 125 -16 188 -27 342 -29 383 -7 22 12 23 15 21 157 0 79 -3
150 -6 156 -3 8 -46 13 -136 14 -232 3 -430 11 -517 22 -94 12 -255 26 -429
38 -72 5 -116 13 -121 21 -5 8 -9 9 -11 1 -3 -8 -21 -7 -63 4 -33 9 -78 17
-100 19 -23 2 -84 11 -136 20 -116 19 -151 20 -174 3z m878 -122 c50 -4 94 -9
99 -12 4 -3 131 -7 280 -10 150 -3 276 -8 280 -12 14 -13 11 -103 -4 -113 -19
-12 -199 -1 -218 15 -12 9 -13 9 -7 0 4 -7 3 -13 -3 -13 -5 0 -13 5 -16 10 -4
6 -10 8 -15 5 -4 -3 -32 0 -61 6 -30 6 -70 12 -89 14 -55 6 -143 25 -165 36
-11 5 -30 11 -43 12 -12 0 -22 5 -22 9 0 4 -13 5 -28 2 -19 -4 -34 0 -44 10
-9 8 -18 13 -21 10 -2 -3 -38 7 -78 21 l-74 26 70 -5 c39 -3 110 -8 159 -11z"/>
</g>
</svg>
